<svg width="16" height="17" viewBox="0 0 16 17" fill="none" xmlns="http://www.w3.org/2000/svg">
<path fill-rule="evenodd" clip-rule="evenodd" d="M2 4.00098C2 3.72483 2.22386 3.50098 2.5 3.50098H13.5C13.7761 3.50098 14 3.72483 14 4.00098C14 4.27712 13.7761 4.50098 13.5 4.50098H2.5C2.22386 4.50098 2 4.27712 2 4.00098Z" fill="#8047F8"/>
<path fill-rule="evenodd" clip-rule="evenodd" d="M6.5 6.50098C6.77614 6.50098 7 6.72483 7 7.00098V11.001C7 11.2771 6.77614 11.501 6.5 11.501C6.22386 11.501 6 11.2771 6 11.001V7.00098C6 6.72483 6.22386 6.50098 6.5 6.50098Z" fill="#8047F8"/>
<path fill-rule="evenodd" clip-rule="evenodd" d="M9.5 6.50098C9.77614 6.50098 10 6.72483 10 7.00098V11.001C10 11.2771 9.77614 11.501 9.5 11.501C9.22386 11.501 9 11.2771 9 11.001V7.00098C9 6.72483 9.22386 6.50098 9.5 6.50098Z" fill="#8047F8"/>
<path fill-rule="evenodd" clip-rule="evenodd" d="M3.5 3.50098C3.77614 3.50098 4 3.72483 4 4.00098V13.501H12V4.00098C12 3.72483 12.2239 3.50098 12.5 3.50098C12.7761 3.50098 13 3.72483 13 4.00098V13.501C13 13.7662 12.8946 14.0205 12.7071 14.2081C12.5196 14.3956 12.2652 14.501 12 14.501H4C3.73478 14.501 3.48043 14.3956 3.29289 14.2081C3.10536 14.0205 3 13.7662 3 13.501V4.00098C3 3.72483 3.22386 3.50098 3.5 3.50098Z" fill="#8047F8"/>
<path fill-rule="evenodd" clip-rule="evenodd" d="M5.43934 1.94032C5.72064 1.65901 6.10218 1.50098 6.5 1.50098H9.5C9.89782 1.50098 10.2794 1.65901 10.5607 1.94032C10.842 2.22162 11 2.60315 11 3.00098V4.00098C11 4.27712 10.7761 4.50098 10.5 4.50098C10.2239 4.50098 10 4.27712 10 4.00098V3.00098C10 2.86837 9.94732 2.74119 9.85355 2.64742C9.75979 2.55365 9.63261 2.50098 9.5 2.50098H6.5C6.36739 2.50098 6.24022 2.55365 6.14645 2.64742C6.05268 2.74119 6 2.86837 6 3.00098V4.00098C6 4.27712 5.77614 4.50098 5.5 4.50098C5.22386 4.50098 5 4.27712 5 4.00098V3.00098C5 2.60315 5.15804 2.22162 5.43934 1.94032Z" fill="#8047F8"/>
</svg>
